<svg xmlns="http://www.w3.org/2000/svg" version="1.1" xmlns:xlink="http://www.w3.org/1999/xlink" xmlns:svgjs="http://svgjs.com/svgjs" width="1440" height="560" preserveAspectRatio="none" viewBox="0 0 1440 560"><g mask="url(&quot;#SvgjsMask1003&quot;)" fill="none"><rect width="1440" height="560" x="0" y="0" fill="rgba(71, 53, 103, 1)"></rect><path d="M0,417.521C77.817,421.968,144.482,368.945,211.052,328.403C279.204,286.898,347.425,245.252,391.783,178.921C441.244,104.958,489.159,19.562,476.48,-68.507C463.802,-156.572,388.574,-219.305,325.428,-281.985C266.39,-340.588,205.385,-407.001,123.11,-419.274C43.574,-431.139,-27.95,-378.19,-101.498,-345.672C-165.473,-317.387,-228.73,-290.428,-278.797,-241.579C-332.181,-189.494,-374.752,-128.225,-397.251,-57.116C-422.643,23.135,-456.096,116.043,-415.234,189.631C-374.321,263.312,-269.983,264.59,-196.101,305.138C-128.688,342.136,-76.773,413.134,0,417.521" fill="#392a52"></path><path d="M1440 950.9010000000001C1513.438 966.19 1597.296 941.087 1651.76 889.505 1704.388 839.662 1689.776 753.736 1718.466 687.171 1746.274 622.652 1831.557 574.538 1817.149 505.774 1802.527 435.98699999999997 1707.201 421.801 1653.127 375.325 1608.98 337.381 1578.973 287.237 1528.714 257.866 1466.825 221.699 1401.062 174.69600000000003 1330.397 186.726 1258.647 198.94 1209.08 263.648 1163.141 320.1 1118.3310000000001 375.16499999999996 1082.7060000000001 436.957 1069.939 506.793 1056.847 578.402 1049.009 659.697 1090.066 719.81 1130.249 778.643 1218.7640000000001 772.479 1278.216 811.74 1338.801 851.75 1368.92 936.1030000000001 1440 950.9010000000001" fill="#55407c"></path></g><defs><mask id="SvgjsMask1003"><rect width="1440" height="560" fill="#ffffff"></rect></mask></defs></svg>