<svg xmlns="http://www.w3.org/2000/svg" version="1.1" xmlns:xlink="http://www.w3.org/1999/xlink" xmlns:svgjs="http://svgjs.com/svgjs" width="1440" height="560" preserveAspectRatio="none" viewBox="0 0 1440 560"><g mask="url(&quot;#SvgjsMask1047&quot;)" fill="none"><rect width="1440" height="560" x="0" y="0" fill="rgba(0, 0, 0, 1)"></rect><path d="M -40.48129341969371,348 C 17.12,310 132.32,155.4 247.5187065803063,158 C 362.72,160.6 420.32,364 535.5187065803063,361 C 650.72,358 708.32,119.6 823.5187065803063,143 C 938.72,166.4 996.32,477.6 1111.5187065803063,478 C 1226.72,478.4 1284.32,149.2 1399.5187065803063,145 C 1514.72,140.8 1679.42,466.6 1687.5187065803063,457 C 1695.61,447.4 1489.5,169 1440,97" stroke="rgba(57, 25, 92, 1)" stroke-width="2"></path><path d="M -292.14085338823804,445 C -234.54,369.4 -119.34,88.6 -4.140853388238035,67 C 111.06,45.4 168.66,337.6 283.85914661176196,337 C 399.06,336.4 456.66,62 571.859146611762,64 C 687.06,66 744.66,305.2 859.859146611762,347 C 975.06,388.8 1032.66,256.2 1147.859146611762,273 C 1263.06,289.8 1377.43,459.6 1435.859146611762,431 C 1494.29,402.4 1439.17,190.2 1440,130" stroke="rgba(57, 25, 92, 1)" stroke-width="2"></path><path d="M -558.5554882821997,385 C -500.96,337.6 -385.76,120.2 -270.5554882821997,148 C -155.36,175.8 -97.76,503.2 17.44451171780031,524 C 132.64,544.8 190.24,251 305.4445117178003,252 C 420.64,253 478.24,569.2 593.4445117178003,529 C 708.64,488.8 766.24,77.8 881.4445117178003,51 C 996.64,24.2 1057.73,358 1169.4445117178002,395 C 1281.16,432 1385.89,267.8 1440,236" stroke="rgba(57, 25, 92, 1)" stroke-width="2"></path></g><defs><mask id="SvgjsMask1047"><rect width="1440" height="560" fill="#ffffff"></rect></mask></defs></svg>